<svg viewBox="0 0 1000 600" xmlns="http://www.w3.org/2000/svg">
  <!-- Background -->
  <rect x="0" y="0" width="1000" height="600" fill="#f9f9f9"/>
  
  <!-- Title -->
  <text x="500" y="40" font-family="Arial" font-size="24" font-weight="bold" text-anchor="middle">Evolution of Economic Resilience Theory</text>
  
  <!-- Timeline -->
  <line x1="100" y1="500" x2="900" y2="500" stroke="#333" stroke-width="2"/>
  
  <!-- Time markers -->
  <line x1="100" y1="500" x2="100" y2="510" stroke="#333" stroke-width="2"/>
  <text x="100" y="525" font-family="Arial" font-size="12" text-anchor="middle">1970s</text>
  
  <line x1="260" y1="500" x2="260" y2="510" stroke="#333" stroke-width="2"/>
  <text x="260" y="525" font-family="Arial" font-size="12" text-anchor="middle">1980s-90s</text>
  
  <line x1="420" y1="500" x2="420" y2="510" stroke="#333" stroke-width="2"/>
  <text x="420" y="525" font-family="Arial" font-size="12" text-anchor="middle">2000s</text>
  
  <line x1="580" y1="500" x2="580" y2="510" stroke="#333" stroke-width="2"/>
  <text x="580" y="525" font-family="Arial" font-size="12" text-anchor="middle">2010-2015</text>
  
  <line x1="740" y1="500" x2="740" y2="510" stroke="#333" stroke-width="2"/>
  <text x="740" y="525" font-family="Arial" font-size="12" text-anchor="middle">2015-2020</text>
  
  <line x1="900" y1="500" x2="900" y2="510" stroke="#333" stroke-width="2"/>
  <text x="900" y="525" font-family="Arial" font-size="12" text-anchor="middle">Present</text>
  
  <!-- Ecological Resilience -->
  <rect x="50" y="80" width="160" height="60" rx="10" fill="#e6f2ff" stroke="#0066cc" stroke-width="2"/>
  <text x="130" y="120" font-family="Arial" font-size="14" font-weight="bold" text-anchor="middle">Ecological Resilience</text>
  <line x1="130" y1="140" x2="130" y2="170" stroke="#0066cc" stroke-width="2" stroke-dasharray="5,5"/>
  
  <rect x="80" y="170" width="100" height="40" rx="5" fill="#e6f2ff" stroke="#0066cc" stroke-width="1"/>
  <text x="130" y="195" font-family="Arial" font-size="11" text-anchor="middle">Holling</text>
  <text x="130" y="210" font-family="Arial" font-size="9" text-anchor="middle">"Resilience of Ecosystems" (1973)</text>
  <line x1="130" y1="210" x2="130" y2="230" stroke="#0066cc" stroke-width="1"/>
  
  <ellipse cx="130" cy="250" rx="80" ry="20" fill="#e6f2ff" stroke="#0066cc" stroke-width="1"/>
  <text x="130" y="254" font-family="Arial" font-size="10" text-anchor="middle">Engineering vs. Ecological Resilience</text>
  <line x1="170" y1="260" x2="220" y2="290" stroke="#0066cc" stroke-width="1"/>
  
  <!-- Adaptive Cycle -->
  <rect x="190" y="140" width="160" height="60" rx="10" fill="#e8f4e8" stroke="#339933" stroke-width="2"/>
  <text x="270" y="175" font-family="Arial" font-size="14" font-weight="bold" text-anchor="middle">Adaptive Cycle</text>
  <line x1="270" y1="200" x2="270" y2="220" stroke="#339933" stroke-width="2" stroke-dasharray="5,5"/>
  
  <rect x="220" y="220" width="100" height="40" rx="5" fill="#e8f4e8" stroke="#339933" stroke-width="1"/>
  <text x="270" y="243" font-family="Arial" font-size="11" text-anchor="middle">Holling & Gunderson</text>
  <text x="270" y="258" font-family="Arial" font-size="9" text-anchor="middle">"Panarchy" (2002)</text>
  <line x1="270" y1="260" x2="270" y2="280" stroke="#339933" stroke-width="1"/>
  
  <ellipse cx="270" cy="300" rx="70" ry="20" fill="#e8f4e8" stroke="#339933" stroke-width="1"/>
  <text x="270" y="304" font-family="Arial" font-size="10" text-anchor="middle">Growth-Conservation-Release</text>
  <line x1="320" y1="310" x2="350" y2="330" stroke="#339933" stroke-width="1"/>
  
  <!-- Regional Economic Resilience -->
  <rect x="300" y="230" width="180" height="60" rx="10" fill="#ffebf5" stroke="#cc6699" stroke-width="2"/>
  <text x="390" y="265" font-family="Arial" font-size="14" font-weight="bold" text-anchor="middle">Regional Economic Resilience</text>
  <line x1="390" y1="290" x2="390" y2="310" stroke="#cc6699" stroke-width="2" stroke-dasharray="5,5"/>
  
  <rect x="340" y="310" width="100" height="40" rx="5" fill="#ffebf5" stroke="#cc6699" stroke-width="1"/>
  <text x="390" y="333" font-family="Arial" font-size="11" text-anchor="middle">Hill et al.</text>
  <text x="390" y="348" font-family="Arial" font-size="9" text-anchor="middle">"Economic Shocks" (2012)</text>
  <line x1="390" y1="350" x2="390" y2="370" stroke="#cc6699" stroke-width="1"/>
  
  <ellipse cx="390" cy="390" rx="70" ry="20" fill="#ffebf5" stroke="#cc6699" stroke-width="1"/>
  <text x="390" y="394" font-family="Arial" font-size="10" text-anchor="middle">Resistance & Recovery</text>
  <line x1="440" y1="380" x2="490" y2="360" stroke="#cc6699" stroke-width="1"/>
  
  <!-- Evolutionary Resilience -->
  <rect x="460" y="190" width="190" height="60" rx="10" fill="#fff2cc" stroke="#ffcc00" stroke-width="2"/>
  <text x="555" y="225" font-family="Arial" font-size="14" font-weight="bold" text-anchor="middle">Evolutionary Resilience</text>
  <line x1="555" y1="250" x2="555" y2="270" stroke="#ffcc00" stroke-width="2" stroke-dasharray="5,5"/>
  
  <rect x="505" y="270" width="100" height="40" rx="5" fill="#fff2cc" stroke="#ffcc00" stroke-width="1"/>
  <text x="555" y="293" font-family="Arial" font-size="11" text-anchor="middle">Simmie & Martin</text>
  <text x="555" y="308" font-family="Arial" font-size="9" text-anchor="middle">"Economic Resilience of Regions" (2010)</text>
  <line x1="555" y1="310" x2="555" y2="330" stroke="#ffcc00" stroke-width="1"/>
  
  <ellipse cx="555" cy="350" rx="70" ry="20" fill="#fff2cc" stroke="#ffcc00" stroke-width="1"/>
  <text x="555" y="354" font-family="Arial" font-size="10" text-anchor="middle">Adaptation Over Equilibrium</text>
  <line x1="600" y1="340" x2="640" y2="300" stroke="#ffcc00" stroke-width="1"/>
  
  <!-- Multi-Dimensional Resilience -->
  <rect x="590" y="130" width="180" height="60" rx="10" fill="#e6e6f2" stroke="#6666cc" stroke-width="2"/>
  <text x="680" y="165" font-family="Arial" font-size="14" font-weight="bold" text-anchor="middle">Multi-Dimensional Resilience</text>
  <line x1="680" y1="190" x2="680" y2="210" stroke="#6666cc" stroke-width="2" stroke-dasharray="5,5"/>
  
  <rect x="630" y="210" width="100" height="40" rx="5" fill="#e6e6f2" stroke="#6666cc" stroke-width="1"/>
  <text x="680" y="233" font-family="Arial" font-size="11" text-anchor="middle">Martin</text>
  <text x="680" y="248" font-family="Arial" font-size="9" text-anchor="middle">"Regional Resilience" (2012)</text>
  <line x1="680" y1="250" x2="680" y2="270" stroke="#6666cc" stroke-width="1"/>
  
  <ellipse cx="680" cy="290" rx="85" ry="20" fill="#e6e6f2" stroke="#6666cc" stroke-width="1"/>
  <text x="680" y="294" font-family="Arial" font-size="10" text-anchor="middle">Resistance-Recovery-Reorientation-Renewal</text>
  <line x1="680" y1="310" x2="680" y2="350" stroke="#6666cc" stroke-width="1"/>
  
  <!-- Agency & Governance -->
  <rect x="650" y="350" width="160" height="60" rx="10" fill="#ffe6cc" stroke="#ff9933" stroke-width="2"/>
  <text x="730" y="385" font-family="Arial" font-size="14" font-weight="bold" text-anchor="middle">Agency & Governance</text>
  <line x1="730" y1="410" x2="730" y2="430" stroke="#ff9933" stroke-width="2" stroke-dasharray="5,5"/>
  
  <rect x="680" y="430" width="100" height="40" rx="5" fill="#ffe6cc" stroke="#ff9933" stroke-width="1"/>
  <text x="730" y="453" font-family="Arial" font-size="11" text-anchor="middle">Bristow & Healy</text>
  <text x="730" y="468" font-family="Arial" font-size="9" text-anchor="middle">"Regional Resilience: Agency" (2014)</text>
  <line x1="730" y1="470" x2="700" y2="490" stroke="#ff9933" stroke-width="1"/>
  
  <ellipse cx="670" cy="470" rx="75" ry="20" fill="#ffe6cc" stroke="#ff9933" stroke-width="1" opacity="0.7"/>
  <text x="670" y="474" font-family="Arial" font-size="10" text-anchor="middle">Individual & Collective Agency</text>
  
  <!-- Related Variety -->
  <rect x="490" y="400" width="160" height="60" rx="10" fill="#fcebeb" stroke="#cc3333" stroke-width="2"/>
  <text x="570" y="435" font-family="Arial" font-size="14" font-weight="bold" text-anchor="middle">Related Variety</text>
  <line x1="570" y1="460" x2="570" y2="480" stroke="#cc3333" stroke-width="2" stroke-dasharray="5,5"/>
  
  <rect x="520" y="480" width="100" height="40" rx="5" fill="#fcebeb" stroke="#cc3333" stroke-width="1"/>
  <text x="570" y="503" font-family="Arial" font-size="11" text-anchor="middle">Boschma</text>
  <text x="570" y="518" font-family="Arial" font-size="9" text-anchor="middle">"Evolutionary Perspective" (2015)</text>
  
  <ellipse cx="570" cy="460" rx="65" ry="20" fill="#fcebeb" stroke="#cc3333" stroke-width="1" opacity="0.7"/>
  <text x="570" y="464" font-family="Arial" font-size="10" text-anchor="middle">Cognitive Proximity</text>
  
  <!-- Integrated Framework -->
  <rect x="790" y="180" width="160" height="60" rx="10" fill="#e0f7e0" stroke="#009900" stroke-width="2"/>
  <text x="870" y="215" font-family="Arial" font-size="14" font-weight="bold" text-anchor="middle">Integrated Framework</text>
  <line x1="870" y1="240" x2="870" y2="260" stroke="#009900" stroke-width="2" stroke-dasharray="5,5"/>
  
  <rect x="820" y="260" width="100" height="40" rx="5" fill="#e0f7e0" stroke="#009900" stroke-width="1"/>
  <text x="870" y="283" font-family="Arial" font-size="11" text-anchor="middle">Martin & Sunley</text>
  <text x="870" y="298" font-family="Arial" font-size="9" text-anchor="middle">"Regional Resilience Notion" (2015)</text>
  <line x1="870" y1="300" x2="870" y2="320" stroke="#009900" stroke-width="1"/>
  
  <ellipse cx="870" cy="340" rx="95" ry="20" fill="#e0f7e0" stroke="#009900" stroke-width="1"/>
  <text x="870" y="344" font-family="Arial" font-size="10" text-anchor="middle">Engineering-Ecological-Adaptive-Transformative</text>
  
  <!-- Cultural-Economic Resilience -->
  <rect x="730" y="110" width="220" height="60" rx="10" fill="#e1d2f9" stroke="#6633cc" stroke-width="2"/>
  <text x="840" y="145" font-family="Arial" font-size="14" font-weight="bold" text-anchor="middle">Cultural-Economic Resilience</text>
  <line x1="840" y1="170" x2="840" y2="190" stroke="#6633cc" stroke-width="2" stroke-dasharray="5,5"/>
  
  <rect x="790" y="190" width="100" height="40" rx="5" fill="#e1d2f9" stroke="#6633cc" stroke-width="1" opacity="0.5"/>
  <text x="840" y="213" font-family="Arial" font-size="11" text-anchor="middle">Comunian & Pratt</text>
  <text x="840" y="228" font-family="Arial" font-size="9" text-anchor="middle">"Cultural Economy Resilience" (2015-20)</text>
  
  <!-- Integration arrows -->
  <path d="M180 250 Q 300 220 520 220" fill="none" stroke="#333" stroke-width="1" stroke-dasharray="3,3"/>
  <path d="M300 320 Q 420 300 550 310" fill="none" stroke="#333" stroke-width="1" stroke-dasharray="3,3"/>
  <path d="M420 370 Q 490 330 650 300" fill="none" stroke="#333" stroke-width="1" stroke-dasharray="3,3"/>
  <path d="M640 270 Q 700 240 800 220" fill="none" stroke="#333" stroke-width="1" stroke-dasharray="3,3"/>
  <path d="M570 440 Q 650 380 700 300" fill="none" stroke="#333" stroke-width="1" stroke-dasharray="3,3"/>
  <path d="M740 420 Q 780 380 820 340" fill="none" stroke="#333" stroke-width="1" stroke-dasharray="3,3"/>
  
  <!-- CIRF -->
  <rect x="700" y="400" width="200" height="90" rx="10" fill="#e1f7e1" stroke="#009900" stroke-width="3"/>
  <text x="800" y="435" font-family="Arial" font-size="16" font-weight="bold" text-anchor="middle">Cultural Innovation</text>
  <text x="800" y="460" font-family="Arial" font-size="16" font-weight="bold" text-anchor="middle">Resilience Framework</text>
  <text x="800" y="480" font-family="Arial" font-size="12" text-anchor="middle">(CIRF)</text>
  
  <!-- Integration arrows to CIRF -->
  <path d="M870 360 Q 850 380 820 400" fill="none" stroke="#333" stroke-width="1" stroke-dasharray="3,3"/>
  <path d="M680 490 Q 720 480 750 490" fill="none" stroke="#333" stroke-width="1" stroke-dasharray="3,3"/>
  <path d="M570 520 Q 650 500 700 470" fill="none" stroke="#333" stroke-width="1" stroke-dasharray="3,3"/>
  <path d="M840 230 Q 860 300 830 390" fill="none" stroke="#333" stroke-width="1" stroke-dasharray="3,3"/>
  
  <!-- Legend -->
  <rect x="870" y="550" width="120" height="20" rx="5" fill="#e8f4e8" stroke="#339933" stroke-width="1"/>
  <text x="930" y="564" font-family="Arial" font-size="10" text-anchor="middle">Theoretical Paradigm</text>
  
  <rect x="870" y="575" width="60" height="20" rx="5" fill="#fff" stroke="#333" stroke-width="1"/>
  <text x="900" y="589" font-family="Arial" font-size="10" text-anchor="middle">Key Work</text>
  
  <ellipse cx="900" cy="605" rx="40" ry="10" fill="#fff" stroke="#333" stroke-width="1"/>
  <text x="900" y="608" font-family="Arial" font-size="8" text-anchor="middle">Key Concept</text>

  <!-- Explanatory text -->
  <text x="100" y="570" font-family="Arial" font-size="10" fill="#666">
    This diagram illustrates the evolution of economic resilience theory from ecological origins through various theoretical developments,
  </text>
  <text x="100" y="585" font-family="Arial" font-size="10" fill="#666">
    showing the convergence of multiple perspectives into the Cultural Innovation Resilience Framework (CIRF).
  </text>
</svg>