<svg viewBox="0 0 900 650" xmlns="http://www.w3.org/2000/svg">
  <!-- Background -->
  <rect width="900" height="650" rx="10" fill="#f8f9fa" />
  
  <!-- Title -->
  <text x="450" y="40" font-family="Arial" font-size="24" font-weight="bold" text-anchor="middle">Economic Resilience Dashboard: Post-Industrial City</text>
  <text x="450" y="65" font-family="Arial" font-size="14" font-style="italic" text-anchor="middle">Before and After Cultural Innovation Resilience Framework (CIRF) Implementation</text>

  <!-- Left Panel - BEFORE -->
  <rect x="50" y="90" width="380" height="520" rx="5" fill="white" stroke="#bdbdbd" stroke-width="2" />
  <rect x="50" y="90" width="380" height="40" rx="5" fill="#eeeeee" stroke="#bdbdbd" stroke-width="2" />
  <text x="240" y="117" font-family="Arial" font-size="18" font-weight="bold" text-anchor="middle">BEFORE (2015)</text>

  <!-- Right Panel - AFTER -->
  <rect x="470" y="90" width="380" height="520" rx="5" fill="white" stroke="#bdbdbd" stroke-width="2" />
  <rect x="470" y="90" width="380" height="40" rx="5" fill="#eeeeee" stroke="#bdbdbd" stroke-width="2" />
  <text x="660" y="117" font-family="Arial" font-size="18" font-weight="bold" text-anchor="middle">AFTER (2022)</text>

  <!-- Economic Diversity Indicator - BEFORE -->
  <rect x="70" y="150" width="340" height="100" rx="5" fill="#f5f5f5" stroke="#bdbdbd" stroke-width="1" />
  <text x="240" y="175" font-family="Arial" font-size="16" font-weight="bold" text-anchor="middle">Economic Diversity Index</text>
  
  <!-- Economic Diversity Chart - BEFORE -->
  <rect x="90" y="185" width="60" height="45" fill="#e57373" />
  <rect x="150" y="185" width="40" height="45" fill="#64b5f6" />
  <rect x="190" y="185" width="30" height="45" fill="#81c784" />
  <rect x="220" y="185" width="20" height="45" fill="#ffb74d" />
  <rect x="240" y="185" width="15" height="45" fill="#ba68c8" />
  <rect x="255" y="185" width="10" height="45" fill="#4dd0e1" />
  <rect x="265" y="185" width="5" height="45" fill="#fff176" />
  <text x="120" y="245" font-family="Arial" font-size="12" text-anchor="middle">Manufacturing</text>
  <text x="170" y="245" font-family="Arial" font-size="12" text-anchor="middle">Retail</text>
  <text x="205" y="245" font-family="Arial" font-size="12" text-anchor="middle">Services</text>
  <text x="230" y="245" font-family="Arial" font-size="12" text-anchor="middle">Gov</text>
  <text x="247" y="245" font-family="Arial" font-size="12" text-anchor="middle">Tech</text>
  <text x="260" y="245" font-family="Arial" font-size="12" text-anchor="middle">Arts</text>
  <text x="270" y="245" font-family="Arial" font-size="9" text-anchor="middle">Other</text>
  <text x="330" y="215" font-family="Arial" font-size="16" font-weight="bold" text-anchor="middle" fill="#d32f2f">0.42</text>
  <text x="330" y="235" font-family="Arial" font-size="12" text-anchor="middle">Shannon Index</text>

  <!-- Economic Diversity Indicator - AFTER -->
  <rect x="490" y="150" width="340" height="100" rx="5" fill="#f5f5f5" stroke="#bdbdbd" stroke-width="1" />
  <text x="660" y="175" font-family="Arial" font-size="16" font-weight="bold" text-anchor="middle">Economic Diversity Index</text>
  
  <!-- Economic Diversity Chart - AFTER -->
  <rect x="510" y="185" width="40" height="45" fill="#e57373" />
  <rect x="550" y="185" width="45" height="45" fill="#64b5f6" />
  <rect x="595" y="185" width="40" height="45" fill="#81c784" />
  <rect x="635" y="185" width="25" height="45" fill="#ffb74d" />
  <rect x="660" y="185" width="30" height="45" fill="#ba68c8" />
  <rect x="690" y="185" width="35" height="45" fill="#4dd0e1" />
  <rect x="725" y="185" width="25" height="45" fill="#fff176" />
  <text x="530" y="245" font-family="Arial" font-size="12" text-anchor="middle">Manufacturing</text>
  <text x="573" y="245" font-family="Arial" font-size="12" text-anchor="middle">Retail</text>
  <text x="615" y="245" font-family="Arial" font-size="12" text-anchor="middle">Services</text>
  <text x="647" y="245" font-family="Arial" font-size="12" text-anchor="middle">Gov</text>
  <text x="675" y="245" font-family="Arial" font-size="12" text-anchor="middle">Tech</text>
  <text x="708" y="245" font-family="Arial" font-size="12" text-anchor="middle">Arts</text>
  <text x="737" y="245" font-family="Arial" font-size="12" text-anchor="middle">Other</text>
  <text x="780" y="215" font-family="Arial" font-size="16" font-weight="bold" text-anchor="middle" fill="#2e7d32">0.76</text>
  <text x="780" y="235" font-family="Arial" font-size="12" text-anchor="middle">Shannon Index</text>

  <!-- Employment Rate - BEFORE -->
  <rect x="70" y="270" width="160" height="90" rx="5" fill="#f5f5f5" stroke="#bdbdbd" stroke-width="1" />
  <text x="150" y="295" font-family="Arial" font-size="16" font-weight="bold" text-anchor="middle">Employment Rate</text>
  <circle cx="150" cy="330" r="25" fill="white" stroke="#d32f2f" stroke-width="3" />
  <text x="150" y="335" font-family="Arial" font-size="16" font-weight="bold" text-anchor="middle" fill="#d32f2f">62%</text>

  <!-- New Business Formation - BEFORE -->
  <rect x="250" y="270" width="160" height="90" rx="5" fill="#f5f5f5" stroke="#bdbdbd" stroke-width="1" />
  <text x="330" y="295" font-family="Arial" font-size="16" font-weight="bold" text-anchor="middle">New Businesses/Year</text>
  <text x="330" y="335" font-family="Arial" font-size="16" font-weight="bold" text-anchor="middle" fill="#d32f2f">37</text>

  <!-- Employment Rate - AFTER -->
  <rect x="490" y="270" width="160" height="90" rx="5" fill="#f5f5f5" stroke="#bdbdbd" stroke-width="1" />
  <text x="570" y="295" font-family="Arial" font-size="16" font-weight="bold" text-anchor="middle">Employment Rate</text>
  <circle cx="570" cy="330" r="25" fill="white" stroke="#2e7d32" stroke-width="3" />
  <text x="570" y="335" font-family="Arial" font-size="16" font-weight="bold" text-anchor="middle" fill="#2e7d32">78%</text>

  <!-- New Business Formation - AFTER -->
  <rect x="670" y="270" width="160" height="90" rx="5" fill="#f5f5f5" stroke="#bdbdbd" stroke-width="1" />
  <text x="750" y="295" font-family="Arial" font-size="16" font-weight="bold" text-anchor="middle">New Businesses/Year</text>
  <text x="750" y="335" font-family="Arial" font-size="16" font-weight="bold" text-anchor="middle" fill="#2e7d32">142</text>

  <!-- Cultural Assets - BEFORE -->
  <rect x="70" y="380" width="340" height="90" rx="5" fill="#f5f5f5" stroke="#bdbdbd" stroke-width="1" />
  <text x="240" y="405" font-family="Arial" font-size="16" font-weight="bold" text-anchor="middle">Cultural Asset Utilization</text>
  
  <!-- Building Utilization Icons - BEFORE -->
  <rect x="90" y="415" width="15" height="15" fill="#2e7d32" />
  <rect x="105" y="415" width="15" height="15" fill="#2e7d32" />
  <rect x="120" y="415" width="15" height="15" fill="#2e7d32" />
  <rect x="135" y="415" width="15" height="15" fill="#c62828" />
  <rect x="150" y="415" width="15" height="15" fill="#c62828" />
  <rect x="165" y="415" width="15" height="15" fill="#c62828" />
  <rect x="180" y="415" width="15" height="15" fill="#c62828" />
  <rect x="195" y="415" width="15" height="15" fill="#c62828" />
  <rect x="210" y="415" width="15" height="15" fill="#c62828" />
  <rect x="225" y="415" width="15" height="15" fill="#c62828" />
  <rect x="240" y="415" width="15" height="15" fill="#c62828" />
  <rect x="255" y="415" width="15" height="15" fill="#c62828" />
  <rect x="270" y="415" width="15" height="15" fill="#c62828" />
  <rect x="285" y="415" width="15" height="15" fill="#c62828" />
  <rect x="300" y="415" width="15" height="15" fill="#c62828" />
  <rect x="315" y="415" width="15" height="15" fill="#c62828" />
  <rect x="330" y="415" width="15" height="15" fill="#c62828" />
  <rect x="345" y="415" width="15" height="15" fill="#c62828" />
  <rect x="360" y="415" width="15" height="15" fill="#c62828" />
  <rect x="375" y="415" width="15" height="15" fill="#c62828" />
  
  <rect x="90" y="430" width="15" height="15" fill="#2e7d32" />
  <rect x="105" y="430" width="15" height="15" fill="#2e7d32" />
  <rect x="120" y="430" width="15" height="15" fill="#c62828" />
  <rect x="135" y="430" width="15" height="15" fill="#c62828" />
  <rect x="150" y="430" width="15" height="15" fill="#c62828" />
  <rect x="165" y="430" width="15" height="15" fill="#c62828" />
  <rect x="180" y="430" width="15" height="15" fill="#c62828" />
  <rect x="195" y="430" width="15" height="15" fill="#c62828" />
  <rect x="210" y="430" width="15" height="15" fill="#c62828" />
  <rect x="225" y="430" width="15" height="15" fill="#c62828" />
  <rect x="240" y="430" width="15" height="15" fill="#c62828" />
  <rect x="255" y="430" width="15" height="15" fill="#c62828" />
  <rect x="270" y="430" width="15" height="15" fill="#c62828" />
  <rect x="285" y="430" width="15" height="15" fill="#c62828" />
  <rect x="300" y="430" width="15" height="15" fill="#c62828" />
  <rect x="315" y="430" width="15" height="15" fill="#c62828" />
  <rect x="330" y="430" width="15" height="15" fill="#c62828" />
  <rect x="345" y="430" width="15" height="15" fill="#c62828" />
  <rect x="360" y="430" width="15" height="15" fill="#c62828" />
  <rect x="375" y="430" width="15" height="15" fill="#c62828" />
  
  <text x="90" y="460" font-family="Arial" font-size="12">■ Active Industrial Buildings: 5 (25%)</text>
  <text x="90" y="475" font-family="Arial" font-size="12">■ Vacant/Underutilized Buildings: 35 (75%)</text>

  <!-- Cultural Assets - AFTER -->
  <rect x="490" y="380" width="340" height="90" rx="5" fill="#f5f5f5" stroke="#bdbdbd" stroke-width="1" />
  <text x="660" y="405" font-family="Arial" font-size="16" font-weight="bold" text-anchor="middle">Cultural Asset Utilization</text>
  
  <!-- Building Utilization Icons - AFTER -->
  <rect x="510" y="415" width="15" height="15" fill="#2e7d32" />
  <rect x="525" y="415" width="15" height="15" fill="#2e7d32" />
  <rect x="540" y="415" width="15" height="15" fill="#2e7d32" />
  <rect x="555" y="415" width="15" height="15" fill="#2e7d32" />
  <rect x="570" y="415" width="15" height="15" fill="#2e7d32" />
  <rect x="585" y="415" width="15" height="15" fill="#1565c0" />
  <rect x="600" y="415" width="15" height="15" fill="#1565c0" />
  <rect x="615" y="415" width="15" height="15" fill="#1565c0" />
  <rect x="630" y="415" width="15" height="15" fill="#1565c0" />
  <rect x="645" y="415" width="15" height="15" fill="#1565c0" />
  <rect x="660" y="415" width="15" height="15" fill="#1565c0" />
  <rect x="675" y="415" width="15" height="15" fill="#1565c0" />
  <rect x="690" y="415" width="15" height="15" fill="#1565c0" />
  <rect x="705" y="415" width="15" height="15" fill="#1565c0" />
  <rect x="720" y="415" width="15" height="15" fill="#1565c0" />
  <rect x="735" y="415" width="15" height="15" fill="#1565c0" />
  <rect x="750" y="415" width="15" height="15" fill="#1565c0" />
  <rect x="765" y="415" width="15" height="15" fill="#c62828" />
  <rect x="780" y="415" width="15" height="15" fill="#c62828" />
  <rect x="795" y="415" width="15" height="15" fill="#c62828" />
  
  <rect x="510" y="430" width="15" height="15" fill="#2e7d32" />
  <rect x="525" y="430" width="15" height="15" fill="#2e7d32" />
  <rect x="540" y="430" width="15" height="15" fill="#2e7d32" />
  <rect x="555" y="430" width="15" height="15" fill="#1565c0" />
  <rect x="570" y="430" width="15" height="15" fill="#1565c0" />
  <rect x="585" y="430" width="15" height="15" fill="#1565c0" />
  <rect x="600" y="430" width="15" height="15" fill="#1565c0" />
  <rect x="615" y="430" width="15" height="15" fill="#1565c0" />
  <rect x="630" y="430" width="15" height="15" fill="#1565c0" />
  <rect x="645" y="430" width="15" height="15" fill="#1565c0" />
  <rect x="660" y="430" width="15" height="15" fill="#1565c0" />
  <rect x="675" y="430" width="15" height="15" fill="#1565c0" />
  <rect x="690" y="430" width="15" height="15" fill="#1565c0" />
  <rect x="705" y="430" width="15" height="15" fill="#1565c0" />
  <rect x="720" y="430" width="15" height="15" fill="#1565c0" />
  <rect x="735" y="430" width="15" height="15" fill="#c62828" />
  <rect x="750" y="430" width="15" height="15" fill="#c62828" />
  <rect x="765" y="430" width="15" height="15" fill="#c62828" />
  <rect x="780" y="430" width="15" height="15" fill="#c62828" />
  <rect x="795" y="430" width="15" height="15" fill="#c62828" />
  
  <text x="510" y="460" font-family="Arial" font-size="12">■ Active Industrial Buildings: 8 (20%)</text>
  <text x="510" y="475" font-family="Arial" font-size="12">■ Creative Repurposed Buildings: 25 (62.5%)</text>
  <text x="510" y="490" font-family="Arial" font-size="12">■ Vacant/Underutilized Buildings: 7 (17.5%)</text>

  <!-- Visitor Numbers - BEFORE -->
  <rect x="70" y="490" width="160" height="90" rx="5" fill="#f5f5f5" stroke="#bdbdbd" stroke-width="1" />
  <text x="150" y="515" font-family="Arial" font-size="16" font-weight="bold" text-anchor="middle">Annual Visitors</text>
  <text x="150" y="545" font-family="Arial" font-size="16" font-weight="bold" text-anchor="middle" fill="#d32f2f">12,450</text>
  <text x="150" y="565" font-family="Arial" font-size="12" text-anchor="middle">Primarily Business Travel</text>

  <!-- Innovation Index - BEFORE -->
  <rect x="250" y="490" width="160" height="90" rx="5" fill="#f5f5f5" stroke="#bdbdbd" stroke-width="1" />
  <text x="330" y="515" font-family="Arial" font-size="16" font-weight="bold" text-anchor="middle">Resilience Index</text>
  <text x="330" y="545" font-family="Arial" font-size="16" font-weight="bold" text-anchor="middle" fill="#d32f2f">0.32</text>
  <text x="330" y="565" font-family="Arial" font-size="12" text-anchor="middle">Foster Regional Resilience Index</text>

  <!-- Visitor Numbers - AFTER -->
  <rect x="490" y="490" width="160" height="90" rx="5" fill="#f5f5f5" stroke="#bdbdbd" stroke-width="1" />
  <text x="570" y="515" font-family="Arial" font-size="16" font-weight="bold" text-anchor="middle">Annual Visitors</text>
  <text x="570" y="545" font-family="Arial" font-size="16" font-weight="bold" text-anchor="middle" fill="#2e7d32">87,320</text>
  <text x="570" y="565" font-family="Arial" font-size="12" text-anchor="middle">Tourism, Events, Business</text>

  <!-- Innovation Index - AFTER -->
  <rect x="670" y="490" width="160" height="90" rx="5" fill="#f5f5f5" stroke="#bdbdbd" stroke-width="1" />
  <text x="750" y="515" font-family="Arial" font-size="16" font-weight="bold" text-anchor="middle">Resilience Index</text>
  <text x="750" y="545" font-family="Arial" font-size="16" font-weight="bold" text-anchor="middle" fill="#2e7d32">0.68</text>
  <text x="750" y="565" font-family="Arial" font-size="12" text-anchor="middle">Foster Regional Resilience Index</text>

  <!-- Key Insights -->
  <rect x="50" y="630" width="800" height="1" fill="#bdbdbd" />
  <text x="50" y="645" font-family="Arial" font-size="12" font-weight="bold">Key Insights:</text>
  <text x="450" y="645" font-family="Arial" font-size="12">Economic diversity increased by 81%, employment improved by 16 percentage points, and new business formation increased by 284%</text>
</svg>
